<svg class="w-6 h-6" width="24" height="24" viewBox="0 0 24 24" fill="none" xmlns="http://www.w3.org/2000/svg"><path d="M4.99984 19.9999V14.6493C4.99992 14.6597 5.00492 14.6517 4.98324 14.6219C4.95865 14.5883 4.91084 14.5445 4.84164 14.5106L4.64535 14.411C3.67439 13.8933 2.89898 13.0684 2.4432 12.0624C1.95716 10.9895 1.86553 9.77927 2.18441 8.64539C2.5033 7.5115 3.21233 6.52643 4.18636 5.86414C4.96354 5.33574 5.86996 5.03969 6.79964 5.00281C7.26533 4.19373 7.91501 3.50115 8.70003 2.98425C9.67956 2.33933 10.8271 1.996 11.9998 1.99597L12.2196 1.99988C13.3155 2.04 14.3813 2.37964 15.2996 2.98425C16.0847 3.50113 16.7343 4.19373 17.2 5.00281C18.1301 5.03916 19.0366 5.33483 19.8143 5.86316C20.7891 6.52548 21.4992 7.51083 21.8182 8.64539C22.1372 9.7799 22.0452 10.991 21.5584 12.0643C21.0718 13.1371 20.2211 14.0022 19.158 14.5096L19.159 14.5106C19.0892 14.5441 19.0411 14.5883 19.0164 14.6219C18.9951 14.6513 18.9998 14.6597 18.9998 14.6503V19.9999C18.9998 20.5303 18.789 21.0389 18.4139 21.4139C18.0388 21.789 17.5303 21.9999 16.9998 21.9999H6.99984C6.46946 21.9998 5.96082 21.789 5.58578 21.4139C5.2108 21.0389 4.99984 20.5302 4.99984 19.9999ZM6.99984 19.9999H16.9998V14.6503C16.9998 13.7059 17.64 13.0208 18.2948 12.7069H18.2967L18.5291 12.5819C19.0584 12.2696 19.4816 11.8016 19.7371 11.2382C20.0292 10.5942 20.0838 9.86713 19.8924 9.1864C19.701 8.50582 19.2751 7.91478 18.6903 7.51746C18.1055 7.12021 17.3993 6.9418 16.6961 7.01453C16.2612 7.05954 15.8475 6.81661 15.6746 6.41492C15.3657 5.69686 14.8529 5.08508 14.2 4.65515C13.6285 4.27886 12.9711 4.0564 12.2918 4.00671L11.9998 3.99597C11.2181 3.996 10.4536 4.22529 9.80062 4.65515C9.1477 5.08504 8.63502 5.69686 8.32601 6.41492C8.17493 6.7661 7.83925 6.9963 7.46664 7.01843L7.30453 7.01453C6.60153 6.9423 5.89578 7.1211 5.31136 7.51843C4.72703 7.91571 4.3016 8.50624 4.11019 9.1864C3.91885 9.86678 3.97379 10.5934 4.26546 11.2372C4.52074 11.8005 4.94268 12.2694 5.47152 12.5819L5.70394 12.7059L5.70687 12.7069L5.82894 12.7704C6.43691 13.1079 6.99984 13.7643 6.99984 14.6493V19.9999Z" fill="#686583" style="fill-opacity:1;"/><path d="M18 16C18.5523 16 19 16.4477 19 17C19 17.5523 18.5523 18 18 18H6C5.44772 18 5 17.5523 5 17C5 16.4477 5.44772 16 6 16H18Z" fill="#686583" style="fill-opacity:1;"/></svg>